<svg version="1.1" viewBox="0.0 0.0 500.0 500.0" fill="none" stroke="none" stroke-linecap="square" stroke-miterlimit="10" xmlns:xlink="http://www.w3.org/1999/xlink" xmlns="http://www.w3.org/2000/svg"><clipPath id="p.0"><path d="m0 0l500.0 0l0 500.0l-500.0 0l0 -500.0z" clip-rule="nonzero"/></clipPath><g clip-path="url(#p.0)"><path fill="#000000" fill-opacity="0.0" d="m0 0l500.0 0l0 500.0l-500.0 0z" fill-rule="evenodd"/><path fill="#000000" d="m3.0026248 84.096146l0 0c0 -45.749226 37.087074 -82.8363 82.8363 -82.8363l331.33527 0l0 0c21.969543 0 43.039307 8.72737 58.574127 24.262192c15.534821 15.534821 24.262177 36.604557 24.262177 58.574112l0 331.33527c0 45.749207 -37.087067 82.8363 -82.8363 82.8363l-331.33527 0c-45.74923 0 -82.8363 -37.087097 -82.8363 -82.8363z" fill-rule="evenodd"/><path stroke="#000000" stroke-width="1.0" stroke-linejoin="round" stroke-linecap="butt" d="m3.0026248 84.096146l0 0c0 -45.749226 37.087074 -82.8363 82.8363 -82.8363l331.33527 0l0 0c21.969543 0 43.039307 8.72737 58.574127 24.262192c15.534821 15.534821 24.262177 36.604557 24.262177 58.574112l0 331.33527c0 45.749207 -37.087067 82.8363 -82.8363 82.8363l-331.33527 0c-45.74923 0 -82.8363 -37.087097 -82.8363 -82.8363z" fill-rule="evenodd"/><path fill="#000000" fill-opacity="0.0" d="m24.220472 162.50394l451.55908 0l0 174.51968l-451.55908 0z" fill-rule="evenodd"/><path fill="#ffffff" d="m53.82985 295.4152q-3.84375 0 -5.953125 -2.109375q-2.109375 -2.125 -2.109375 -6.09375l0 -43.390625l-5.890625 0q-3.078125 0 -4.75 -1.59375q-1.65625 -1.609375 -1.65625 -4.421875q0 -2.9375 1.65625 -4.46875q1.671875 -1.546875 4.75 -1.546875l10.5 0l-4.609375 4.21875l0 -4.34375q0 -13.1875 6.65625 -19.78125q6.65625 -6.59375 19.203125 -7.734375l4.34375 -0.390625q2.5625 -0.25 4.09375 0.84375q1.546875 1.078125 2.046875 2.8125q0.515625 1.71875 0.125 3.515625q-0.375 1.796875 -1.59375 3.140625q-1.21875 1.34375 -3.140625 1.46875l-1.78125 0.125q-7.296875 0.515625 -10.625 3.71875q-3.328125 3.1875 -3.328125 9.71875l0 4.734375l-2.046875 -2.046875l12.921875 0q3.078125 0 4.734375 1.546875q1.671875 1.53125 1.671875 4.46875q0 2.8125 -1.671875 4.421875q-1.65625 1.59375 -4.734375 1.59375l-10.875 0l0 43.390625q0 8.203125 -7.9375 8.203125z" fill-rule="nonzero"/><path fill="#ffffff" d="m94.781235 295.27457q-2.546875 0 -3.890625 -1.40625q-1.34375 -1.40625 -1.34375 -3.96875l0 -53.375q0 -2.5625 1.265625 -3.90625q1.28125 -1.34375 3.71875 -1.34375q2.4375 0 3.78125 1.34375q1.34375 1.34375 1.34375 3.90625l0 10.375l-1.28125 0q2.046875 -7.5625 7.796875 -11.65625q5.765625 -4.09375 14.21875 -4.34375q1.921875 -0.125 3.0625 0.828125q1.15625 0.953125 1.28125 3.265625q0.140625 2.171875 -1.015625 3.453125q-1.15625 1.28125 -3.59375 1.53125l-2.046875 0.265625q-8.703125 0.765625 -13.375 5.5625q-4.671875 4.796875 -4.671875 13.125l0 30.96875q0 2.5625 -1.34375 3.96875q-1.34375 1.40625 -3.90625 1.40625zm67.852875 0.265625q-9.859375 0 -16.96875 -3.90625q-7.09375 -3.90625 -11.0 -11.0625q-3.90625 -7.171875 -3.90625 -17.15625q0 -9.734375 3.828125 -16.96875q3.84375 -7.234375 10.5625 -11.328125q6.734375 -4.09375 15.5625 -4.09375q6.265625 0 11.25 2.109375q5.0 2.109375 8.515625 6.078125q3.53125 3.96875 5.375 9.609375q1.859375 5.625 1.859375 12.671875q0 2.046875 -1.15625 3.015625q-1.140625 0.953125 -3.3125 0.953125l-44.546875 0l0 -6.796875l42.109375 0l-2.046875 1.671875q0 -6.90625 -2.046875 -11.703125q-2.046875 -4.8125 -5.953125 -7.375q-3.90625 -2.5625 -9.796875 -2.5625q-6.53125 0 -11.078125 3.015625q-4.53125 3.015625 -6.84375 8.328125q-2.296875 5.296875 -2.296875 12.34375l0 0.765625q0 11.78125 5.6875 17.921875q5.703125 6.140625 16.203125 6.140625q4.34375 0 8.625 -1.140625q4.296875 -1.15625 8.390625 -3.84375q1.796875 -1.15625 3.265625 -1.09375q1.46875 0.0625 2.359375 0.90625q0.90625 0.828125 1.21875 2.046875q0.328125 1.203125 -0.25 2.625q-0.578125 1.40625 -2.234375 2.421875q-4.234375 3.078125 -10.0 4.75q-5.75 1.65625 -11.375 1.65625zm68.09601 0q-9.859375 0 -16.96875 -3.90625q-7.09375 -3.90625 -11.0 -11.0625q-3.90625 -7.171875 -3.90625 -17.15625q0 -9.734375 3.828125 -16.96875q3.84375 -7.234375 10.5625 -11.328125q6.734375 -4.09375 15.5625 -4.09375q6.265625 0 11.25 2.109375q5.0 2.109375 8.515625 6.078125q3.53125 3.96875 5.375 9.609375q1.859375 5.625 1.859375 12.671875q0 2.046875 -1.15625 3.015625q-1.140625 0.953125 -3.3125 0.953125l-44.546875 0l0 -6.796875l42.109375 0l-2.046875 1.671875q0 -6.90625 -2.046875 -11.703125q-2.046875 -4.8125 -5.953125 -7.375q-3.90625 -2.5625 -9.796875 -2.5625q-6.53125 0 -11.078125 3.015625q-4.53125 3.015625 -6.84375 8.328125q-2.296875 5.296875 -2.296875 12.34375l0 0.765625q0 11.78125 5.6875 17.921875q5.703125 6.140625 16.203125 6.140625q4.34375 0 8.625 -1.140625q4.296875 -1.15625 8.390625 -3.84375q1.796875 -1.15625 3.265625 -1.09375q1.46875 0.0625 2.359375 0.90625q0.90625 0.828125 1.21875 2.046875q0.328125 1.203125 -0.25 2.625q-0.578125 1.40625 -2.234375 2.421875q-4.234375 3.078125 -10.0 4.75q-5.75 1.65625 -11.375 1.65625z" fill-rule="nonzero"/><path fill="#ffffff" d="m298.3105 295.6652q-9.859375 0 -17.15625 -4.03125q-7.296875 -4.03125 -11.265625 -11.453125q-3.96875 -7.421875 -3.96875 -17.40625q0 -7.5625 2.234375 -13.515625q2.25 -5.953125 6.46875 -10.109375q4.234375 -4.15625 10.25 -6.390625q6.015625 -2.25 13.4375 -2.25q4.21875 0 9.140625 1.15625q4.9375 1.15625 9.296875 3.84375q2.046875 1.28125 2.6875 3.078125q0.640625 1.78125 0.25 3.640625q-0.390625 1.859375 -1.609375 3.203125q-1.203125 1.34375 -3.0 1.671875q-1.796875 0.3125 -3.96875 -0.84375q-2.8125 -1.671875 -5.765625 -2.5q-2.9375 -0.828125 -5.625 -0.828125q-4.21875 0 -7.421875 1.34375q-3.203125 1.34375 -5.453125 3.84375q-2.234375 2.484375 -3.390625 6.203125q-1.140625 3.703125 -1.140625 8.578125q0 9.46875 4.546875 14.90625q4.546875 5.4375 12.859375 5.4375q2.6875 0 5.5625 -0.765625q2.890625 -0.765625 5.828125 -2.4375q2.171875 -1.140625 3.90625 -0.75q1.734375 0.375 2.875 1.71875q1.15625 1.34375 1.40625 3.203125q0.265625 1.859375 -0.4375 3.65625q-0.703125 1.78125 -2.625 2.9375q-4.234375 2.546875 -8.96875 3.703125q-4.734375 1.15625 -8.953125 1.15625z" fill-rule="nonzero"/><path fill="#ffffff" d="m350.789 295.5402q-6.40625 0 -11.46875 -2.5q-5.046875 -2.5 -8.0 -6.84375q-2.9375 -4.359375 -2.9375 -9.734375q0 -6.90625 3.515625 -10.875q3.53125 -3.96875 11.65625 -5.625q8.125 -1.671875 22.203125 -1.671875l5.765625 0l0 6.78125l-5.625 0q-10.375 0 -16.328125 0.96875q-5.953125 0.953125 -8.328125 3.265625q-2.359375 2.296875 -2.359375 6.515625q0 5.25 3.640625 8.578125q3.65625 3.328125 9.921875 3.328125q5.125 0 9.03125 -2.421875q3.90625 -2.4375 6.140625 -6.65625q2.25 -4.234375 2.25 -9.734375l0 -14.59375q0 -7.9375 -3.203125 -11.453125q-3.203125 -3.53125 -10.5 -3.53125q-4.484375 0 -8.96875 1.15625q-4.46875 1.15625 -9.46875 3.71875q-1.78125 0.890625 -3.0625 0.578125q-1.28125 -0.328125 -2.046875 -1.34375q-0.765625 -1.03125 -0.90625 -2.375q-0.125 -1.34375 0.578125 -2.625q0.703125 -1.28125 2.25 -2.046875q5.625 -2.8125 11.125 -4.09375q5.515625 -1.28125 10.5 -1.28125q8.0625 0 13.3125 2.625q5.25 2.625 7.8125 7.9375q2.5625 5.3125 2.5625 13.625l0 34.6875q0 2.5625 -1.21875 3.96875q-1.21875 1.40625 -3.53125 1.40625q-2.421875 0 -3.703125 -1.40625q-1.28125 -1.40625 -1.28125 -3.96875l0 -9.984375l1.15625 0q-1.03125 4.875 -3.90625 8.328125q-2.875 3.453125 -7.109375 5.375q-4.21875 1.921875 -9.46875 1.921875zm73.21503 0q-7.296875 0 -12.234375 -2.625q-4.921875 -2.625 -7.359375 -7.671875q-2.421875 -5.0625 -2.421875 -12.359375l0 -32.640625l-8.578125 0q-2.171875 0 -3.328125 -1.078125q-1.15625 -1.09375 -1.15625 -3.015625q0 -1.921875 1.15625 -2.9375q1.15625 -1.03125 3.328125 -1.03125l8.578125 0l0 -14.71875q0 -2.5625 1.40625 -3.90625q1.40625 -1.34375 3.84375 -1.34375q2.4375 0 3.78125 1.34375q1.34375 1.34375 1.34375 3.90625l0 14.71875l16.125 0q2.171875 0 3.3125 1.03125q1.15625 1.015625 1.15625 2.9375q0 1.921875 -1.15625 3.015625q-1.140625 1.078125 -3.3125 1.078125l-16.125 0l0 31.609375q0 7.296875 3.0625 11.078125q3.078125 3.765625 9.984375 3.765625q2.4375 0 4.15625 -0.5q1.734375 -0.515625 2.890625 -0.515625q1.140625 -0.125 1.90625 0.765625q0.78125 0.890625 0.78125 3.078125q0 1.53125 -0.578125 2.8125q-0.578125 1.28125 -1.984375 1.796875q-1.53125 0.5 -4.03125 0.953125q-2.5 0.453125 -4.546875 0.453125z" fill-rule="nonzero"/></g></svg>