<svg version="1.1" viewBox="0.0 0.0 500.0 500.0" fill="none" stroke="none" stroke-linecap="square" stroke-miterlimit="10" xmlns:xlink="http://www.w3.org/1999/xlink" xmlns="http://www.w3.org/2000/svg"><clipPath id="p.0"><path d="m0 0l500.0 0l0 500.0l-500.0 0l0 -500.0z" clip-rule="nonzero"/></clipPath><g clip-path="url(#p.0)"><path fill="#000000" fill-opacity="0.0" d="m0 0l500.0 0l0 500.0l-500.0 0z" fill-rule="evenodd"/><path fill="#000000" d="m3.0026248 84.096146l0 0c0 -45.749226 37.087074 -82.8363 82.8363 -82.8363l331.33527 0l0 0c21.969543 0 43.039307 8.72737 58.574127 24.262192c15.534821 15.534821 24.262177 36.604557 24.262177 58.574112l0 331.33527c0 45.749207 -37.087067 82.8363 -82.8363 82.8363l-331.33527 0c-45.74923 0 -82.8363 -37.087097 -82.8363 -82.8363z" fill-rule="evenodd"/><path stroke="#000000" stroke-width="1.0" stroke-linejoin="round" stroke-linecap="butt" d="m3.0026248 84.096146l0 0c0 -45.749226 37.087074 -82.8363 82.8363 -82.8363l331.33527 0l0 0c21.969543 0 43.039307 8.72737 58.574127 24.262192c15.534821 15.534821 24.262177 36.604557 24.262177 58.574112l0 331.33527c0 45.749207 -37.087067 82.8363 -82.8363 82.8363l-331.33527 0c-45.74923 0 -82.8363 -37.087097 -82.8363 -82.8363z" fill-rule="evenodd"/><path fill="#000000" fill-opacity="0.0" d="m37.83723 65.779564l427.3386 0l0 368.44095l-427.3386 0z" fill-rule="evenodd"/><path fill="#ffffff" d="m211.766 353.55643q-8.9375 0 -13.984375 -5.03125q-5.03125 -5.046875 -5.03125 -14.546875l0 -166.17189q0 -9.5 5.03125 -14.546875q5.046875 -5.046875 14.5625 -5.046875l100.499985 0q7.5 0 11.234375 3.75q3.75 3.75 3.75 10.65625q0 7.203125 -3.75 11.09375q-3.734375 3.875 -11.234375 3.875l-83.218735 0l0 57.3125l77.17186 0q7.203125 0 11.09375 3.75q3.890625 3.75 3.890625 10.65625q0 7.2031403 -3.890625 11.093765q-3.890625 3.890625 -11.09375 3.890625l-77.17186 0l0 69.6875q0 19.578125 -17.859375 19.578125z" fill-rule="nonzero"/><path fill="#000000" d="m250.0 107.850395l16.566925 0l0 259.68503l-16.566925 0z" fill-rule="evenodd"/><path stroke="#000000" stroke-width="1.0" stroke-linejoin="round" stroke-linecap="butt" d="m250.0 107.850395l16.566925 0l0 259.68503l-16.566925 0z" fill-rule="evenodd"/><path fill="#000000" d="m282.0 107.850395l16.566925 0l0 259.68503l-16.566925 0z" fill-rule="evenodd"/><path stroke="#000000" stroke-width="1.0" stroke-linejoin="round" stroke-linecap="butt" d="m282.0 107.850395l16.566925 0l0 259.68503l-16.566925 0z" fill-rule="evenodd"/></g></svg>