<svg version="1.1" viewBox="0.0 0.0 32.0 32.0" fill="none" stroke="none" stroke-linecap="square" stroke-miterlimit="10" xmlns:xlink="http://www.w3.org/1999/xlink" xmlns="http://www.w3.org/2000/svg"><clipPath id="p.0"><path d="m0 0l500.0 0l0 500.0l-500.0 0l0 -500.0z" clip-rule="nonzero"/></clipPath><g clip-path="url(#p.0)"><path fill="#000000" fill-opacity="0.0" d="m0 0l500.0 0l0 500.0l-500.0 0z" fill-rule="evenodd"/><path fill="#000000" d="m3.0026248 84.096146l0 0c0 -45.749226 37.087074 -82.8363 82.8363 -82.8363l331.33527 0l0 0c21.969543 0 43.039307 8.72737 58.574127 24.262192c15.534821 15.534821 24.262177 36.604557 24.262177 58.574112l0 331.33527c0 45.749207 -37.087067 82.8363 -82.8363 82.8363l-331.33527 0c-45.74923 0 -82.8363 -37.087097 -82.8363 -82.8363z" fill-rule="evenodd"/><path stroke="#000000" stroke-width="1.0" stroke-linejoin="round" stroke-linecap="butt" d="m3.0026248 84.096146l0 0c0 -45.749226 37.087074 -82.8363 82.8363 -82.8363l331.33527 0l0 0c21.969543 0 43.039307 8.72737 58.574127 24.262192c15.534821 15.534821 24.262177 36.604557 24.262177 58.574112l0 331.33527c0 45.749207 -37.087067 82.8363 -82.8363 82.8363l-331.33527 0c-45.74923 0 -82.8363 -37.087097 -82.8363 -82.8363z" fill-rule="evenodd"/><path fill="#ffffff" d="m25.727034 230.37796l0 0c0 -42.27806 34.273132 -76.55119 76.55118 -76.55119l0 0c20.302635 0 39.773727 8.065201 54.129868 22.421326c14.356125 14.356125 22.42131 33.827225 22.42131 54.129868l0 0c0 42.278046 -34.273132 76.55118 -76.55118 76.55118l0 0c-42.27805 0 -76.55118 -34.273132 -76.55118 -76.55118z" fill-rule="evenodd"/><path stroke="#000000" stroke-width="1.0" stroke-linejoin="round" stroke-linecap="butt" d="m25.727034 230.37796l0 0c0 -42.27806 34.273132 -76.55119 76.55118 -76.55119l0 0c20.302635 0 39.773727 8.065201 54.129868 22.421326c14.356125 14.356125 22.42131 33.827225 22.42131 54.129868l0 0c0 42.278046 -34.273132 76.55118 -76.55118 76.55118l0 0c-42.27805 0 -76.55118 -34.273132 -76.55118 -76.55118z" fill-rule="evenodd"/><path fill="#000000" fill-opacity="0.0" d="m45.317585 162.50394l113.921265 0l0 135.74805l-113.921265 0z" fill-rule="evenodd"/><path fill="#000000" d="m89.0366 264.42957q-2.984375 0 -4.671875 -1.671875q-1.671875 -1.6875 -1.671875 -4.859375l0 -55.390625q0 -3.15625 1.671875 -4.84375q1.6875 -1.6875 4.859375 -1.6875l33.5 0q2.5 0 3.75 1.25q1.25 1.25 1.25 3.5625q0 2.390625 -1.25 3.6875q-1.25 1.296875 -3.75 1.296875l-27.734375 0l0 19.109375l25.71875 0q2.40625 0 3.703125 1.25q1.296875 1.25 1.296875 3.546875q0 2.40625 -1.296875 3.703125q-1.296875 1.296875 -3.703125 1.296875l-25.71875 0l0 23.21875q0 6.53125 -5.953125 6.53125z" fill-rule="nonzero"/><path fill="#000000" fill-opacity="0.0" d="m178.82939 162.50394l290.2677 0l0 135.74805l-290.2677 0z" fill-rule="evenodd"/><path fill="#ffffff" d="m199.06377 264.33582q-1.921875 0 -2.9375 -1.046875q-1.0 -1.0625 -1.0 -2.984375l0 -40.03125q0 -1.921875 0.953125 -2.921875q0.96875 -1.015625 2.796875 -1.015625q1.8125 0 2.8125 1.015625q1.015625 1.0 1.015625 2.921875l0 7.78125l-0.953125 0q1.53125 -5.671875 5.84375 -8.734375q4.328125 -3.078125 10.671875 -3.265625q1.4375 -0.109375 2.296875 0.625q0.859375 0.71875 0.96875 2.4375q0.09375 1.640625 -0.78125 2.609375q-0.859375 0.953125 -2.6875 1.140625l-1.53125 0.1875q-6.53125 0.578125 -10.03125 4.1875q-3.5 3.59375 -3.5 9.828125l0 23.234375q0 1.921875 -1.015625 2.984375q-1.0 1.046875 -2.921875 1.046875zm50.870102 0.1875q-7.390625 0 -12.71875 -2.921875q-5.328125 -2.921875 -8.25 -8.296875q-2.921875 -5.390625 -2.921875 -12.875q0 -7.296875 2.875 -12.71875q2.875 -5.421875 7.90625 -8.484375q5.046875 -3.078125 11.671875 -3.078125q4.703125 0 8.453125 1.578125q3.75 1.578125 6.390625 4.5625q2.640625 2.96875 4.03125 7.203125q1.390625 4.21875 1.390625 9.5q0 1.53125 -0.875 2.25q-0.859375 0.71875 -2.484375 0.71875l-33.40625 0l0 -5.078125l31.578125 0l-1.53125 1.25q0 -5.1875 -1.546875 -8.78125q-1.53125 -3.609375 -4.46875 -5.53125q-2.921875 -1.921875 -7.328125 -1.921875q-4.90625 0 -8.3125 2.265625q-3.40625 2.25 -5.140625 6.234375q-1.71875 3.984375 -1.71875 9.265625l0 0.578125q0 8.828125 4.265625 13.4375q4.28125 4.609375 12.140625 4.609375q3.265625 0 6.484375 -0.859375q3.21875 -0.875 6.296875 -2.890625q1.34375 -0.859375 2.4375 -0.8125q1.109375 0.046875 1.78125 0.671875q0.671875 0.625 0.90625 1.546875q0.25 0.90625 -0.1875 1.96875q-0.4375 1.046875 -1.671875 1.8125q-3.171875 2.3125 -7.5 3.5625q-4.3125 1.234375 -8.546875 1.234375zm51.07199 0q-7.390625 0 -12.71875 -2.921875q-5.328125 -2.921875 -8.25 -8.296875q-2.921875 -5.390625 -2.921875 -12.875q0 -7.296875 2.875 -12.71875q2.875 -5.421875 7.90625 -8.484375q5.046875 -3.078125 11.671875 -3.078125q4.703125 0 8.453125 1.578125q3.75 1.578125 6.390625 4.5625q2.640625 2.96875 4.03125 7.203125q1.390625 4.21875 1.390625 9.5q0 1.53125 -0.875 2.25q-0.859375 0.71875 -2.484375 0.71875l-33.40625 0l0 -5.078125l31.578125 0l-1.53125 1.25q0 -5.1875 -1.546875 -8.78125q-1.53125 -3.609375 -4.46875 -5.53125q-2.921875 -1.921875 -7.328125 -1.921875q-4.90625 0 -8.3125 2.265625q-3.40625 2.25 -5.140625 6.234375q-1.71875 3.984375 -1.71875 9.265625l0 0.578125q0 8.828125 4.265625 13.4375q4.28125 4.609375 12.140625 4.609375q3.265625 0 6.484375 -0.859375q3.21875 -0.875 6.296875 -2.890625q1.34375 -0.859375 2.4375 -0.8125q1.109375 0.046875 1.78125 0.671875q0.671875 0.625 0.90625 1.546875q0.25 0.90625 -0.1875 1.96875q-0.4375 1.046875 -1.671875 1.8125q-3.171875 2.3125 -7.5 3.5625q-4.3125 1.234375 -8.546875 1.234375zm49.837585 0q-7.015625 0 -12.109375 -3.0625q-5.078125 -3.078125 -7.8125 -8.59375q-2.734375 -5.515625 -2.734375 -12.8125q0 -5.578125 1.53125 -9.984375q1.53125 -4.421875 4.5 -7.53125q2.984375 -3.125 7.15625 -4.75q4.1875 -1.640625 9.46875 -1.640625q3.453125 0 7.1875 1.0625q3.75 1.046875 6.828125 3.640625q0.953125 0.671875 1.234375 1.640625q0.296875 0.953125 0 1.859375q-0.28125 0.90625 -0.953125 1.53125q-0.671875 0.625 -1.6875 0.734375q-1.0 0.09375 -2.0625 -0.6875q-2.484375 -1.90625 -5.078125 -2.671875q-2.59375 -0.78125 -5.0 -0.78125q-3.734375 0 -6.53125 1.203125q-2.78125 1.203125 -4.703125 3.40625q-1.90625 2.203125 -2.921875 5.46875q-1.0 3.265625 -1.0 7.59375q0 8.34375 3.921875 13.203125q3.9375 4.84375 11.234375 4.84375q2.40625 0 4.953125 -0.765625q2.546875 -0.78125 5.125 -2.6875q1.0625 -0.78125 2.015625 -0.671875q0.96875 0.09375 1.640625 0.71875q0.671875 0.625 0.90625 1.578125q0.25 0.953125 -0.046875 1.875q-0.28125 0.90625 -1.25 1.578125q-3.0625 2.5 -6.71875 3.609375q-3.640625 1.09375 -7.09375 1.09375zm38.970245 0q-4.796875 0 -8.59375 -1.859375q-3.796875 -1.875 -6.0 -5.140625q-2.203125 -3.265625 -2.203125 -7.296875q0 -5.1875 2.640625 -8.15625q2.640625 -2.984375 8.734375 -4.234375q6.09375 -1.25 16.65625 -1.25l4.3125 0l0 5.09375l-4.21875 0q-7.78125 0 -12.25 0.71875q-4.453125 0.71875 -6.234375 2.453125q-1.765625 1.71875 -1.765625 4.890625q0 3.9375 2.734375 6.4375q2.734375 2.5 7.4375 2.5q3.84375 0 6.765625 -1.828125q2.921875 -1.828125 4.59375 -4.984375q1.6875 -3.171875 1.6875 -7.3125l0 -10.9375q0 -5.953125 -2.40625 -8.59375q-2.390625 -2.640625 -7.859375 -2.640625q-3.359375 0 -6.71875 0.875q-3.359375 0.859375 -7.109375 2.78125q-1.34375 0.671875 -2.3125 0.4375q-0.953125 -0.25 -1.53125 -1.015625q-0.5625 -0.765625 -0.671875 -1.765625q-0.09375 -1.015625 0.4375 -1.96875q0.53125 -0.96875 1.6875 -1.546875q4.21875 -2.109375 8.34375 -3.0625q4.125 -0.96875 7.875 -0.96875q6.046875 0 9.984375 1.96875q3.9375 1.96875 5.859375 5.953125q1.921875 3.984375 1.921875 10.21875l0 26.015625q0 1.921875 -0.921875 2.984375q-0.90625 1.046875 -2.640625 1.046875q-1.8125 0 -2.78125 -1.046875q-0.953125 -1.0625 -0.953125 -2.984375l0 -7.484375l0.859375 0q-0.765625 3.640625 -2.9375 6.234375q-2.15625 2.59375 -5.328125 4.03125q-3.15625 1.4375 -7.09375 1.4375zm54.911224 0q-5.46875 0 -9.171875 -1.96875q-3.6875 -1.96875 -5.515625 -5.75q-1.828125 -3.796875 -1.828125 -9.265625l0 -24.484375l-6.421875 0q-1.640625 0 -2.5 -0.8125q-0.859375 -0.8125 -0.859375 -2.265625q0 -1.4375 0.859375 -2.203125q0.859375 -0.765625 2.5 -0.765625l6.421875 0l0 -11.046875q0 -1.90625 1.046875 -2.90625q1.0625 -1.015625 2.890625 -1.015625q1.828125 0 2.828125 1.015625q1.015625 1.0 1.015625 2.90625l0 11.046875l12.09375 0q1.640625 0 2.5 0.765625q0.859375 0.765625 0.859375 2.203125q0 1.453125 -0.859375 2.265625q-0.859375 0.8125 -2.5 0.8125l-12.09375 0l0 23.71875q0 5.46875 2.296875 8.296875q2.3125 2.828125 7.5 2.828125q1.8125 0 3.109375 -0.375q1.296875 -0.390625 2.171875 -0.390625q0.859375 -0.09375 1.4375 0.578125q0.578125 0.671875 0.578125 2.3125q0 1.140625 -0.4375 2.109375q-0.4375 0.953125 -1.484375 1.34375q-1.15625 0.375 -3.03125 0.703125q-1.875 0.34375 -3.40625 0.34375z" fill-rule="nonzero"/></g></svg>